<svg width="115" height="96" viewBox="0 0 115 96" fill="none" xmlns="http://www.w3.org/2000/svg">
<path d="M84.7954 2H29.5985L2 47.9971L29.5985 94H84.7954L112.4 47.9971L84.7954 2Z" fill="#FFCC05"/>
<path d="M84.7954 2H29.5985L2 47.9971L29.5985 94H84.7954L112.4 47.9971L84.7954 2Z" stroke="black" stroke-width="4" stroke-linecap="round" stroke-linejoin="round"/>
<path d="M82.2753 58.5036H94.2814L100.287 48.1082L94.2814 37.7069L57.0479 29.748L82.2753 58.5036Z" stroke="black" stroke-width="4" stroke-linecap="round" stroke-linejoin="round"/>
<path d="M61.5488 21.6071L70.5106 13.9492" stroke="black" stroke-width="4" stroke-linecap="round" stroke-linejoin="round"/>
<path d="M52.5868 21.6208L43.625 13.9629" stroke="black" stroke-width="4" stroke-linecap="round" stroke-linejoin="round"/>
<path d="M80.906 78.9529V67.7433L70.5106 61.7373H43.5722L33.1768 67.7433V78.9529" stroke="black" stroke-width="4" stroke-linecap="round" stroke-linejoin="round"/>
<path d="M67.4472 31.1054V22.2912L57.0459 16.2852L46.6445 22.2912V31.1054" stroke="black" stroke-width="4" stroke-linecap="round" stroke-linejoin="round"/>
<path d="M43.5801 45.2686V69.5875L57.0434 77.3634L70.5126 69.5875V45.2686" stroke="black" stroke-width="4" stroke-linecap="round" stroke-linejoin="round"/>
<path d="M31.7914 58.5007H19.7794L13.7793 48.0994L19.7794 37.704L57.0483 29.7393L31.7914 58.5007Z" stroke="black" stroke-width="4" stroke-linecap="round" stroke-linejoin="round"/>
<path d="M57.0479 77.0645V78.5984" stroke="black" stroke-width="4" stroke-linecap="round" stroke-linejoin="round"/>
<path d="M70.5126 48.2832H43.5801" stroke="black" stroke-width="4" stroke-linecap="round" stroke-linejoin="round"/>
</svg>
