<svg width="31" height="28" viewBox="0 0 31 28" fill="none" xmlns="http://www.w3.org/2000/svg">
<path d="M25.8333 19.083C24.4086 19.083 23.25 17.9403 23.25 16.5352C23.25 15.13 24.4086 13.9873 25.8333 13.9873C27.258 13.9873 28.4167 15.13 28.4167 16.5352C28.4167 17.9403 27.258 19.083 25.8333 19.083ZM25.8333 15.2612C25.1216 15.2612 24.5417 15.8332 24.5417 16.5352C24.5417 17.2371 25.1216 17.8091 25.8333 17.8091C26.545 17.8091 27.125 17.2371 27.125 16.5352C27.125 15.8332 26.545 15.2612 25.8333 15.2612Z" fill="black"/>
<path d="M30.3542 25.4522C29.9977 25.4522 29.7083 25.1668 29.7083 24.8152V23.5413C29.7083 22.4877 28.839 21.6304 27.7708 21.6304H23.8958C23.5393 21.6304 23.25 21.345 23.25 20.9934C23.25 20.6418 23.5393 20.3564 23.8958 20.3564H27.7708C29.5507 20.3564 31 21.7858 31 23.5413V24.8152C31 25.1668 30.7107 25.4522 30.3542 25.4522Z" fill="black"/>
<path d="M5.16659 19.083C3.74188 19.083 2.58325 17.9403 2.58325 16.5352C2.58325 15.13 3.74188 13.9873 5.16659 13.9873C6.59129 13.9873 7.74992 15.13 7.74992 16.5352C7.74992 17.9403 6.59129 19.083 5.16659 19.083ZM5.16659 15.2612C4.45488 15.2612 3.87492 15.8332 3.87492 16.5352C3.87492 17.2371 4.45488 17.8091 5.16659 17.8091C5.87829 17.8091 6.45825 17.2371 6.45825 16.5352C6.45825 15.8332 5.87829 15.2612 5.16659 15.2612Z" fill="black"/>
<path d="M0.645833 25.4522C0.289333 25.4522 0 25.1668 0 24.8152V23.5413C0 21.7858 1.44925 20.3564 3.22917 20.3564H7.10417C7.46067 20.3564 7.75 20.6418 7.75 20.9934C7.75 21.345 7.46067 21.6304 7.10417 21.6304H3.22917C2.16096 21.6304 1.29167 22.4877 1.29167 23.5413V24.8152C1.29167 25.1668 1.00233 25.4522 0.645833 25.4522Z" fill="black"/>
<path d="M15.5 19.7198C13.3636 19.7198 11.625 18.0051 11.625 15.898C11.625 13.7909 13.3636 12.0762 15.5 12.0762C17.6364 12.0762 19.375 13.7909 19.375 15.898C19.375 18.0051 17.6364 19.7198 15.5 19.7198ZM15.5 13.3501C14.0753 13.3501 12.9167 14.4928 12.9167 15.898C12.9167 17.3031 14.0753 18.4458 15.5 18.4458C16.9247 18.4458 18.0833 17.3031 18.0833 15.898C18.0833 14.4928 16.9247 13.3501 15.5 13.3501Z" fill="black"/>
<path d="M21.9585 27.9995C21.602 27.9995 21.3127 27.7142 21.3127 27.3626V24.8147C21.3127 23.7612 20.4434 22.9038 19.3752 22.9038H11.6252C10.557 22.9038 9.68766 23.7612 9.68766 24.8147V27.3626C9.68766 27.7142 9.39833 27.9995 9.04183 27.9995C8.68533 27.9995 8.396 27.7142 8.396 27.3626V24.8147C8.396 23.0592 9.84525 21.6299 11.6252 21.6299H19.3752C21.1551 21.6299 22.6043 23.0592 22.6043 24.8147V27.3626C22.6043 27.7142 22.315 27.9995 21.9585 27.9995Z" fill="black"/>
<path d="M20.3011 10.1654H10.6988C10.3837 10.1654 10.1137 9.94114 10.062 9.63412L9.05065 3.68867C9.01061 3.453 9.10749 3.2135 9.30382 3.07209C9.49886 2.92941 9.75978 2.90648 9.97678 3.01476L12.7035 4.35494L14.9329 0.307655C15.1589 -0.102552 15.8422 -0.102552 16.0683 0.307655L18.2977 4.35494L21.0244 3.01476C21.2414 2.90775 21.5023 2.92941 21.6974 3.07209C21.8924 3.21477 21.9906 3.453 21.9505 3.68867L20.9379 9.63412C20.8862 9.94114 20.6162 10.1654 20.3011 10.1654ZM11.2452 8.89142H19.7547L20.4664 4.71164L18.3158 5.76901C18.0045 5.92315 17.626 5.80595 17.4594 5.50403L15.4999 1.94466L13.5405 5.50275C13.3752 5.8034 12.9954 5.9206 12.6841 5.76773L10.5335 4.71037L11.2452 8.89142Z" fill="black"/>
</svg>
