<svg width="18" height="18" viewBox="0 0 18 18" fill="none" xmlns="http://www.w3.org/2000/svg">
<path d="M1.30741 14.7123C0.959209 14.4806 0.75 14.09 0.75 13.6718L0.75 11.1617C0.75 10.7435 0.959209 10.3529 1.30741 10.1211L4.20077 8.1954C4.62028 7.91618 5.16643 7.91618 5.58595 8.1954L8.47931 10.1211C8.82751 10.3529 9.03672 10.7435 9.03672 11.1617V13.6718C9.03672 14.09 8.82751 14.4806 8.47931 14.7123L5.58595 16.6381C5.16643 16.9173 4.62028 16.9173 4.20077 16.6381L1.30741 14.7123Z" stroke="white" stroke-width="1.5"/>
<path d="M9.52079 14.7133C9.17259 14.4816 8.96338 14.091 8.96338 13.6727V11.1627C8.96338 10.7444 9.17259 10.3539 9.52079 10.1221L12.4141 8.19637C12.8337 7.91715 13.3798 7.91715 13.7993 8.19637L16.6927 10.1221C17.0409 10.3539 17.2501 10.7444 17.2501 11.1627V13.6727C17.2501 14.091 17.0409 14.4816 16.6927 14.7133L13.7993 16.6391C13.3798 16.9183 12.8337 16.9183 12.4141 16.6391L9.52079 14.7133Z" stroke="white" stroke-width="1.5"/>
<path d="M5.41459 7.87934C5.06639 7.64759 4.85718 7.25703 4.85718 6.83875V4.32872C4.85718 3.91045 5.06639 3.51989 5.41459 3.28814L8.30795 1.36239C8.72746 1.08317 9.27361 1.08317 9.69313 1.36239L12.5865 3.28814C12.9347 3.51989 13.1439 3.91045 13.1439 4.32872V6.83875C13.1439 7.25703 12.9347 7.64759 12.5865 7.87934L9.69312 9.80509C9.27361 10.0843 8.72746 10.0843 8.30795 9.80509L5.41459 7.87934Z" stroke="white" stroke-width="1.5"/>
</svg>
