<svg width="31" height="28" viewBox="0 0 31 28" fill="none" xmlns="http://www.w3.org/2000/svg">
<path d="M25.8333 19.083C24.4086 19.083 23.25 17.9403 23.25 16.5352C23.25 15.13 24.4086 13.9873 25.8333 13.9873C27.258 13.9873 28.4167 15.13 28.4167 16.5352C28.4167 17.9403 27.258 19.083 25.8333 19.083ZM25.8333 15.2612C25.1216 15.2612 24.5417 15.8332 24.5417 16.5352C24.5417 17.2371 25.1216 17.8091 25.8333 17.8091C26.545 17.8091 27.125 17.2371 27.125 16.5352C27.125 15.8332 26.545 15.2612 25.8333 15.2612Z" fill="white"/>
<path d="M30.3542 25.4522C29.9977 25.4522 29.7083 25.1668 29.7083 24.8152V23.5413C29.7083 22.4877 28.839 21.6304 27.7708 21.6304H23.8958C23.5393 21.6304 23.25 21.345 23.25 20.9934C23.25 20.6418 23.5393 20.3564 23.8958 20.3564H27.7708C29.5507 20.3564 31 21.7858 31 23.5413V24.8152C31 25.1668 30.7107 25.4522 30.3542 25.4522Z" fill="white"/>
<path d="M5.16732 19.083C3.74261 19.083 2.58398 17.9403 2.58398 16.5352C2.58398 15.13 3.74261 13.9873 5.16732 13.9873C6.59203 13.9873 7.75065 15.13 7.75065 16.5352C7.75065 17.9403 6.59203 19.083 5.16732 19.083ZM5.16732 15.2612C4.45561 15.2612 3.87565 15.8332 3.87565 16.5352C3.87565 17.2371 4.45561 17.8091 5.16732 17.8091C5.87903 17.8091 6.45898 17.2371 6.45898 16.5352C6.45898 15.8332 5.87903 15.2612 5.16732 15.2612Z" fill="white"/>
<path d="M0.645833 25.4522C0.289333 25.4522 0 25.1668 0 24.8152V23.5413C0 21.7858 1.44925 20.3564 3.22917 20.3564H7.10417C7.46067 20.3564 7.75 20.6418 7.75 20.9934C7.75 21.345 7.46067 21.6304 7.10417 21.6304H3.22917C2.16096 21.6304 1.29167 22.4877 1.29167 23.5413V24.8152C1.29167 25.1668 1.00233 25.4522 0.645833 25.4522Z" fill="white"/>
<path d="M15.5 19.7198C13.3636 19.7198 11.625 18.0051 11.625 15.898C11.625 13.7909 13.3636 12.0762 15.5 12.0762C17.6364 12.0762 19.375 13.7909 19.375 15.898C19.375 18.0051 17.6364 19.7198 15.5 19.7198ZM15.5 13.3501C14.0753 13.3501 12.9167 14.4928 12.9167 15.898C12.9167 17.3031 14.0753 18.4458 15.5 18.4458C16.9247 18.4458 18.0833 17.3031 18.0833 15.898C18.0833 14.4928 16.9247 13.3501 15.5 13.3501Z" fill="white"/>
<path d="M21.959 27.9995C21.6025 27.9995 21.3131 27.7142 21.3131 27.3626V24.8147C21.3131 23.7612 20.4439 22.9038 19.3756 22.9038H11.6257C10.5574 22.9038 9.68815 23.7612 9.68815 24.8147V27.3626C9.68815 27.7142 9.39882 27.9995 9.04232 27.9995C8.68582 27.9995 8.39648 27.7142 8.39648 27.3626V24.8147C8.39648 23.0592 9.84573 21.6299 11.6257 21.6299H19.3756C21.1556 21.6299 22.6048 23.0592 22.6048 24.8147V27.3626C22.6048 27.7142 22.3155 27.9995 21.959 27.9995Z" fill="white"/>
<path d="M20.3003 10.1654H10.6981C10.3829 10.1654 10.113 9.94114 10.0613 9.63412L9.04992 3.68867C9.00988 3.453 9.10675 3.2135 9.30309 3.07209C9.49813 2.92941 9.75904 2.90648 9.97604 3.01476L12.7028 4.35494L14.9322 0.307655C15.1582 -0.102552 15.8415 -0.102552 16.0675 0.307655L18.297 4.35494L21.0237 3.01476C21.2407 2.90775 21.5016 2.92941 21.6966 3.07209C21.8917 3.21477 21.9898 3.453 21.9498 3.68867L20.9371 9.63412C20.8855 9.94114 20.6155 10.1654 20.3003 10.1654ZM11.2445 8.89142H19.754L20.4657 4.71164L18.315 5.76901C18.0038 5.92315 17.6253 5.80595 17.4587 5.50403L15.4992 1.94466L13.5398 5.50275C13.3744 5.8034 12.9947 5.9206 12.6834 5.76773L10.5328 4.71037L11.2445 8.89142Z" fill="white"/>
</svg>
